<svg width="95" height="96" viewBox="0 0 95 96" fill="none" xmlns="http://www.w3.org/2000/svg">
<g clip-path="url(#clip0_80_42)">
<path d="M47.5124 2.66737C72.2896 2.66737 92.3604 22.9494 92.3604 47.9874C92.3604 73.0254 72.2896 93.3075 47.5124 93.3075C22.7353 93.3326 2.63958 73.0254 2.63958 48.0126C2.63958 22.9746 22.7353 2.66737 47.5124 2.66737ZM47.5124 0C21.3159 0 0 21.5402 0 48.0126C0 74.4849 21.3159 96.0252 47.5124 96.0252C73.709 96.0252 95.0249 74.4849 95.0249 48.0126C95.0249 21.5402 73.6841 0 47.5124 0Z" fill="black"/>
<path d="M36.6055 75.1392C31.924 75.0134 28.5374 74.6359 26.1717 73.0254C24.8021 72.1195 23.6567 70.9368 22.7602 69.578C21.1665 67.1623 20.7681 63.74 20.6685 59.0092C20.6685 58.1285 21.3408 57.3987 22.1875 57.3735C23.059 57.3735 23.8061 58.0781 23.8061 58.9337C23.9306 63.7903 24.3539 66.2815 25.3749 67.8165C26.0472 68.8482 26.8939 69.7038 27.9149 70.3832C29.409 71.3898 31.8742 71.8427 36.7052 71.9686C37.1285 71.9686 37.5269 72.1447 37.8008 72.4718C38.0996 72.7738 38.2491 73.1764 38.2242 73.6042C38.2242 74.4598 37.502 75.1644 36.6553 75.1644H36.5806L36.6055 75.1392Z" fill="black"/>
<path d="M22.1625 38.6516C21.7641 38.6516 21.3657 38.4755 21.0918 38.1483C20.793 37.8464 20.6435 37.4438 20.6684 37.016C20.7681 32.411 21.1416 29.0642 22.6108 26.6485L22.7602 26.422C23.6567 25.038 24.827 23.8805 26.1966 22.9494C28.5872 21.3389 31.9738 20.9363 36.6553 20.8356C37.5518 20.8356 38.2491 21.5151 38.274 22.3958C38.274 22.8236 38.1245 23.2262 37.8506 23.5282C37.5518 23.8301 37.1783 24.0063 36.7549 24.0314C31.9489 24.1573 29.4836 24.585 27.9646 25.6168C26.9437 26.2962 26.097 27.1518 25.3998 28.1835C24.4037 29.6933 23.9555 32.1845 23.831 37.0663C23.831 37.9219 23.1088 38.6265 22.2622 38.6265H22.1875L22.1625 38.6516Z" fill="black"/>
<path d="M72.7628 38.6517C71.9161 38.6517 71.2189 37.9471 71.194 37.0915C71.0695 32.2349 70.6461 29.7437 69.6251 28.2087C68.9528 27.177 68.1061 26.3214 67.0852 25.642C65.5662 24.6354 63.1009 24.1825 58.2949 24.0566C57.8715 24.0566 57.4731 23.8805 57.1992 23.5534C56.9004 23.2514 56.751 22.8488 56.7759 22.421C56.7759 21.5654 57.5229 20.8608 58.3696 20.8608C63.076 20.9867 66.4626 21.3641 68.8532 22.9746C70.2228 23.8805 71.3683 25.0632 72.2647 26.422C73.8584 28.8378 74.2569 32.2601 74.3565 36.9909C74.3565 37.4186 74.2071 37.8213 73.9331 38.1232C73.6343 38.4252 73.2608 38.6013 72.8375 38.6265H72.7877L72.7628 38.6517Z" fill="black"/>
<path d="M58.3945 75.1392C57.4731 75.1392 56.7759 74.4346 56.751 73.5791C56.751 73.1513 56.9004 72.7487 57.1992 72.4467C57.498 72.1447 57.8716 71.9686 58.2949 71.9434C63.1009 71.8176 65.5662 71.3898 67.0852 70.3581C68.1062 69.6535 68.9528 68.7979 69.6252 67.7914C70.6212 66.2815 71.0695 63.7903 71.194 58.9085C71.194 58.0278 71.941 57.3484 72.8375 57.3484C73.2359 57.3484 73.6343 57.5245 73.9082 57.8517C74.2071 58.1536 74.3565 58.5563 74.3316 58.984C74.2071 63.74 73.8335 67.1623 72.2398 69.5528C71.3434 70.9369 70.173 72.0944 68.8034 73.0255C66.4377 74.6108 63.1009 75.0134 58.4941 75.1392H58.3696H58.3945Z" fill="black"/>
<path d="M59.0917 60.5442C58.3944 60.5442 57.7719 60.0912 57.5727 59.4118L55.4311 52.3156H40.266H39.4193L39.1703 53.1209L37.2529 59.3867C37.0536 60.0661 36.4311 60.519 35.7339 60.519C35.5595 60.519 35.4101 60.519 35.2856 60.4435C34.8872 60.3177 34.5386 60.0409 34.3643 59.6635C34.1651 59.286 34.1152 58.8582 34.2398 58.4556L40.1415 39.0543C41.1375 35.8082 44.051 33.6189 47.4128 33.6189C50.7745 33.6189 53.7129 35.8082 54.6841 39.0543L60.5609 58.4556C60.6854 58.8582 60.6356 59.286 60.4363 59.6635C60.2371 60.0409 59.9134 60.3177 59.515 60.4435C59.3656 60.4939 59.2162 60.519 59.0418 60.519L59.0917 60.5442ZM47.4377 36.8147C45.4704 36.8147 43.7522 38.0981 43.1795 39.9853L40.4154 49.1198H54.4848L51.7208 39.9853C51.148 38.0729 49.4298 36.7895 47.4626 36.7895L47.4377 36.8147Z" fill="black"/>
</g>
<defs>
<clipPath id="clip0_80_42">
<rect width="95" height="96" fill="white"/>
</clipPath>
</defs>
</svg>
