<svg width="97" height="96" viewBox="0 0 97 96" fill="none" xmlns="http://www.w3.org/2000/svg">
<g clip-path="url(#clip0_80_61)">
<path d="M48.5 2.675C73.7857 2.675 94.2971 22.975 94.2971 48C94.2971 73.025 73.7857 93.325 48.5 93.325C23.2143 93.325 2.70286 73.05 2.70286 48C2.70286 22.975 23.2143 2.675 48.5 2.675ZM48.5 0C21.7492 0 0 21.525 0 48C0 74.475 21.7492 96 48.5 96C75.2508 96 97 74.475 97 48C97 21.525 75.2508 0 48.5 0Z" fill="black"/>
<path d="M16.8234 59.875C16.293 59.875 15.914 59.725 15.5857 59.375C15.2573 59.025 15.1057 58.45 15.1057 57.65V38.825C15.1057 38.225 15.1815 37.75 15.3583 37.425C15.4846 37.15 15.6867 36.95 15.9646 36.825C16.3182 36.675 16.7982 36.6 17.3792 36.6H29.1758C29.7568 36.6 30.1862 36.7 30.4135 36.925C30.6409 37.125 30.7419 37.375 30.7419 37.725C30.7419 38.2 30.5651 38.4 30.4135 38.525C30.1862 38.725 29.7568 38.85 29.1758 38.85H18.5159V46.7H27.5591C28.1148 46.7 28.519 46.8 28.7463 47C28.8726 47.125 29.0495 47.325 29.0495 47.775C29.0495 48.225 28.8979 48.4 28.7463 48.525C28.4685 48.775 27.938 48.825 27.5591 48.825H18.5159V57.675C18.5159 58.5 18.3643 59.075 18.0359 59.425C17.7075 59.75 17.3286 59.925 16.8234 59.925V59.875Z" fill="black"/>
<path d="M53.6279 59.875C53.0974 59.875 52.7185 59.725 52.4154 59.375C52.087 59.025 51.9354 58.425 51.9354 57.625V48.6H39.5326V57.625C39.5326 58.425 39.3558 59 39.0274 59.35C38.699 59.7 38.3201 59.85 37.7896 59.85C37.2591 59.85 36.8802 59.7 36.5771 59.35C36.2487 59 36.0972 58.4 36.0972 57.6V38.325C36.0972 37.525 36.2487 36.95 36.5771 36.6C36.8802 36.275 37.2591 36.125 37.7896 36.125C38.3201 36.125 38.7243 36.275 39.0274 36.625C39.3558 36.975 39.5073 37.55 39.5073 38.35V46.15H51.9102V38.35C51.9102 37.55 52.0617 36.975 52.3901 36.625C52.6933 36.3 53.0722 36.125 53.6026 36.125C54.1331 36.125 54.5373 36.275 54.8404 36.625C55.1688 36.975 55.3203 37.55 55.3203 38.35V57.625C55.3203 58.425 55.1435 59 54.8151 59.35C54.4868 59.7 54.1078 59.85 53.5774 59.85L53.6279 59.875Z" fill="black"/>
<path d="M64.7424 59.45C63.8078 59.45 63.3278 59.3 63.1005 59.15C62.8226 58.975 62.6458 58.775 62.5447 58.475C62.4184 58.05 62.3679 57.475 62.3679 56.75V38.8C62.3679 37.975 62.5447 37.35 62.8479 37.05C63.1762 36.725 63.7825 36.575 64.6161 36.575H71.1333C72.7499 36.575 74.1645 36.725 75.3012 37.025C76.3874 37.3 77.3979 37.825 78.282 38.6C80.6565 40.625 81.869 43.775 81.869 47.95C81.869 49.35 81.7427 50.65 81.49 51.8C81.2374 52.925 80.8838 53.95 80.3786 54.875C79.8734 55.775 79.2419 56.575 78.4588 57.275C77.8778 57.8 77.1958 58.225 76.4885 58.55C75.7812 58.875 74.9729 59.1 74.1645 59.25C73.3057 59.375 72.3205 59.45 71.2343 59.45H64.7171H64.7424ZM65.7781 57.1H70.3755C71.2343 57.1 71.9164 57.1 72.3963 57.025C72.9268 56.975 73.4825 56.85 74.0635 56.65C74.6697 56.45 75.2002 56.125 75.6296 55.75C77.4736 54.2 78.4083 51.575 78.4083 47.9C78.4083 45.325 78.0041 43.4 77.1958 42.075C76.3622 40.7 75.3012 39.825 74.013 39.425C72.851 39.075 71.4617 38.9 69.8703 38.9H65.7781V57.1Z" fill="black"/>
</g>
<defs>
<clipPath id="clip0_80_61">
<rect width="97" height="96" fill="white"/>
</clipPath>
</defs>
</svg>
