<svg width="96" height="96" viewBox="0 0 96 96" fill="none" xmlns="http://www.w3.org/2000/svg">
<g clip-path="url(#clip0_80_69)">
<path d="M48 2.675C73.025 2.675 93.325 22.975 93.325 48C93.325 73.025 73.025 93.325 48 93.325C22.975 93.325 2.675 73.05 2.675 48C2.675 22.975 22.975 2.675 48 2.675ZM48 0C21.525 0 0 21.525 0 48C0 74.475 21.525 96 48 96C74.475 96 96 74.475 96 48C96 21.525 74.475 0 48 0Z" fill="black"/>
<path d="M36.5249 75.1C33.8249 75.1 31.0999 75.1 28.3999 75.1C24.9499 75.1 22.3249 73.275 21.3499 70.225C21.0749 69.375 20.9249 68.425 20.9249 67.475C20.9249 56.15 20.8999 44.125 20.9249 28.5C20.9249 23.9 23.9249 20.925 28.5249 20.9C35.0249 20.9 41.5249 20.9 48.0249 20.9C54.5249 20.9 61.0249 20.9 67.5249 20.9C72.1249 20.9 75.0999 23.9 75.1249 28.5C75.1249 41.5 75.1249 54.5 75.1249 67.475C75.1249 72.075 72.1249 75.05 67.5249 75.075C64.8499 75.075 62.1749 75.075 59.4749 75.075H47.4499H36.5249V75.1ZM28.4999 24.2C27.2249 24.2 26.1499 24.6 25.3749 25.375C24.5999 26.15 24.1999 27.275 24.1999 28.625C24.2999 41.525 24.2999 54.575 24.1999 67.375C24.1999 68.725 24.5999 69.825 25.3749 70.625C26.1499 71.4 27.2499 71.8 28.5749 71.8C35.0499 71.75 41.5749 71.725 47.9999 71.725C54.4249 71.725 60.9499 71.725 67.3749 71.8C68.7499 71.8 69.8499 71.4 70.6249 70.625C71.3999 69.85 71.7999 68.725 71.7999 67.4C71.6999 54.45 71.6999 41.425 71.7999 28.65C71.7999 27.3 71.3999 26.175 70.6249 25.4C69.8749 24.65 68.7999 24.25 67.5249 24.25H67.3999C65.0249 24.3 62.4499 24.325 59.2999 24.325C57.4499 24.325 55.5749 24.325 53.7249 24.325C51.8749 24.325 49.9999 24.325 48.1499 24.325C46.2999 24.325 44.3749 24.325 42.4999 24.325C40.6249 24.325 38.7249 24.325 36.8499 24.325C33.6499 24.325 31.0499 24.325 28.6499 24.25H28.5249L28.4999 24.2Z" fill="black"/>
<path d="M54.6749 42.95C54.2749 42.95 53.8999 42.775 53.5499 42.425C53.1249 42 52.5999 41.1 53.7499 39.975L61.2749 32.45C61.2749 32.45 61.3999 32.325 61.4499 32.25H57.2249C56.5749 32.25 55.8999 32.25 55.2499 32.25C54.7249 32.25 53.2749 32.25 53.0999 30.65C53.0499 30.25 53.1749 29.875 53.4249 29.6C53.7999 29.2 54.4249 28.975 55.1999 28.975C56.8749 28.975 58.5749 28.975 60.2499 28.975C61.8249 28.975 63.4249 28.975 64.9999 28.975C66.3999 28.975 67.0499 29.6 67.0499 30.95C67.0499 34.125 67.0499 37.425 67.0499 41C67.0499 42.15 66.3999 42.975 65.5249 42.975C65.5249 42.975 65.3999 42.975 65.3249 42.975C64.3249 42.85 63.7749 42.15 63.7749 41.025V38.65C63.7749 37.55 63.7749 36.45 63.7749 35.35C63.7749 35.125 63.7749 34.875 63.7499 34.55L57.2749 41.1C56.8749 41.525 56.4499 41.925 56.0249 42.35C55.5749 42.775 55.1249 43 54.6749 43V42.95Z" fill="black"/>
<path d="M39.525 67.05H34.7C33.55 67.05 32.375 67.05 31.225 67.05C29.55 67.05 28.975 66.45 28.95 64.8C28.95 63.425 28.95 62.05 28.95 60.675C28.95 58.85 28.95 57.05 28.95 55.225C28.95 54.75 28.95 53.25 30.55 53.075C30.6 53.075 30.675 53.075 30.725 53.075C31.625 53.075 32.25 53.925 32.25 55.2C32.25 56.725 32.25 58.275 32.25 59.925V61.475L33.0749 60.65C34.0749 59.65 35 58.725 35.925 57.825C36.475 57.275 37.05 56.7 37.6 56.15C38.35 55.4 39.0999 54.65 39.8499 53.9C40.3999 53.35 40.8999 53.075 41.3999 53.075C41.7999 53.075 42.1749 53.275 42.5 53.625C43.525 54.825 42.5 55.825 42.175 56.175C40.15 58.175 34.525 63.775 34.525 63.775H40.625C40.8499 63.775 41.1 63.775 41.325 63.8C42.325 63.9 42.95 64.525 42.95 65.425C42.95 66.35 42.3 66.975 41.3 67.025C41.025 67.025 40.775 67.025 40.5 67.025C40.325 67.025 39.675 67.025 39.525 67.025V67.05Z" fill="black"/>
</g>
<defs>
<clipPath id="clip0_80_69">
<rect width="96" height="96" fill="white"/>
</clipPath>
</defs>
</svg>
