<svg width="96" height="96" viewBox="0 0 96 96" fill="none" xmlns="http://www.w3.org/2000/svg">
<g clip-path="url(#clip0_80_52)">
<path d="M55.9999 63.675C55.8249 63.675 55.6499 63.675 55.4249 63.675C55.1999 63.675 54.9249 63.675 54.6499 63.675H54.4499C53.5999 63.675 52.7749 63.675 51.9249 63.675H47.7999H43.3749C42.2749 63.675 41.1749 63.675 40.0999 63.675C39.0499 63.675 37.9749 63.5 37.6749 62.125C36.4249 56.725 33.6749 52.125 30.6999 47.5C26.8999 41.6 26.2749 34.325 29.0249 28C31.7499 21.675 37.2499 17.325 44.0999 16.05C45.6249 15.775 47.1249 15.625 48.5499 15.625C55.2249 15.625 60.7249 18.625 64.9249 24.525C69.7499 31.3 69.8999 40.075 65.3499 47.45C63.7499 50.05 62.3249 52.8 60.9499 55.475C60.4749 56.4 59.9749 57.35 59.4999 58.275C59.1499 58.925 58.8999 59.675 58.7499 60.425C58.1749 63.3 57.6499 63.7 56.0249 63.7L55.9999 63.675ZM51.3749 60.25C51.6999 60.25 52.0499 60.25 52.3999 60.275C52.7499 60.275 53.0749 60.3 53.3999 60.3C54.1999 60.3 54.7249 60.2 55.1499 59.95C55.6249 59.65 55.8249 58.9 56.0249 58.125C56.1749 57.6 56.2999 57.05 56.5499 56.6C58.7999 52.35 60.8499 48.55 63.0249 44.775C66.0999 39.5 66.0749 33.1 62.9749 27.65C59.9249 22.275 54.5499 19.025 48.5499 18.975H48.2749C41.2999 18.975 36.0999 22.025 32.7999 28.075C29.5499 34.025 29.8499 40.05 33.6749 45.925C35.9249 49.375 38.6999 54.025 40.4749 59.275C40.5999 59.675 41.3499 60.2 41.8499 60.225C42.6499 60.275 43.5499 60.3 44.6499 60.3C45.1999 60.3 45.7749 60.3 46.3249 60.3C46.8499 60.3 47.3499 60.3 47.8749 60.3H47.9999C48.3249 60.3 49.6249 60.3 49.9499 60.3C50.3499 60.3 50.7749 60.3 51.1749 60.3C51.2499 60.3 51.3249 60.3 51.3999 60.3L51.3749 60.25Z" fill="black"/>
<path d="M40.4751 69.25C39.7251 69.25 39.1501 69.05 38.7751 68.675C38.4251 68.325 38.2501 67.775 38.2751 67.1C38.3251 65.775 39.0251 65.15 40.4251 65.15C41.5251 65.15 42.5751 65.15 43.6001 65.15H47.9751H52.4001C53.4251 65.15 54.4501 65.15 55.4751 65.15C56.9251 65.15 57.6251 65.775 57.6751 67.1C57.6751 67.775 57.5251 68.325 57.1751 68.675C56.8001 69.05 56.2251 69.25 55.4751 69.25C53.0251 69.25 50.5751 69.25 48.1001 69.25C45.6251 69.25 43.0001 69.25 40.4501 69.25H40.4751Z" fill="black"/>
<path d="M42.4251 74.75C41.5751 74.75 40.9751 74.55 40.6001 74.15C40.2751 73.8 40.1001 73.325 40.1001 72.7C40.1001 70.95 41.4751 70.725 42.4751 70.725C43.2501 70.725 44.0251 70.725 44.8001 70.725H51.3251C52.0501 70.725 52.8001 70.725 53.5251 70.725C55.1501 70.725 55.9251 71.35 55.9501 72.675C55.9501 73.3 55.8001 73.8 55.4501 74.15C55.0501 74.55 54.4501 74.75 53.6251 74.75H48.2251C46.3001 74.75 44.3751 74.75 42.4501 74.75H42.4251Z" fill="black"/>
<path d="M45.9001 80.4C45.4751 80.4 45.0251 80.4 44.6001 80.4C43.2001 80.35 42.45 79.625 42.425 78.375C42.425 77.1 43.2 76.325 44.55 76.275C45.65 76.25 46.7751 76.225 47.9251 76.225C49.0751 76.225 50.2 76.225 51.375 76.275C52.775 76.325 53.5501 77.05 53.5501 78.325C53.5501 79.675 52.7751 80.375 51.2501 80.4C50.8251 80.4 50.375 80.4 49.95 80.4H47.9251C47.5751 80.4 47.2501 80.4 46.9001 80.4C46.5501 80.4 46.2251 80.4 45.8751 80.4H45.9001Z" fill="black"/>
<path d="M48 2.675C73.025 2.675 93.325 22.975 93.325 48C93.325 73.025 73.025 93.325 48 93.325C22.975 93.325 2.675 73.05 2.675 48C2.675 22.975 22.975 2.675 48 2.675ZM48 0C21.525 0 0 21.525 0 48C0 74.475 21.525 96 48 96C74.475 96 96 74.475 96 48C96 21.525 74.475 0 48 0Z" fill="black"/>
</g>
<defs>
<clipPath id="clip0_80_52">
<rect width="96" height="96" fill="white"/>
</clipPath>
</defs>
</svg>
