<svg width="95" height="96" viewBox="0 0 95 96" fill="none" xmlns="http://www.w3.org/2000/svg">
<g clip-path="url(#clip0_80_35)">
<path d="M47.5124 2.66737C72.2896 2.66737 92.3604 22.9494 92.3604 47.9874C92.3604 73.0254 72.2896 93.3075 47.5124 93.3075C22.7353 93.3326 2.63958 73.0254 2.63958 48.0126C2.63958 22.9746 22.7353 2.66737 47.5124 2.66737ZM47.5124 0C21.3159 0 0 21.5402 0 48.0126C0 74.4849 21.3159 96.0252 47.5124 96.0252C73.709 96.0252 95.0249 74.4849 95.0249 48.0126C95.0249 21.5402 73.6841 0 47.5124 0Z" fill="black"/>
<path d="M64.2713 26.1452V22.0435C64.2713 18.4451 61.3827 15.5261 57.8217 15.5261H33.7667C30.2306 15.5261 27.3171 18.4702 27.3171 22.0435V73.9565C27.3171 77.5297 30.2306 80.4739 33.7667 80.4739H57.8217C61.3827 80.4739 64.2713 77.5549 64.2713 73.9565V59.1601C64.2713 58.3801 63.6487 57.7761 62.9017 57.7761H62.7274C61.9554 57.7761 61.3578 58.4052 61.3578 59.1601V73.9565C61.3578 75.9192 59.789 77.5046 57.8466 77.5046H33.7916C31.8492 77.5046 30.2804 75.9192 30.2804 73.9565V22.0435C30.2804 20.0807 31.8492 18.4954 33.7916 18.4954H57.8466C59.789 18.4954 61.3578 20.1059 61.3578 22.0435V26.1452C61.3578 26.9253 61.9803 27.5292 62.7274 27.5292H62.9017C63.6736 27.5292 64.2713 26.9001 64.2713 26.1452Z" fill="black"/>
<path d="M44.1506 64.2181C43.9265 64.2181 43.6775 64.1929 43.4534 64.1174C42.4573 63.7903 41.7103 63.1612 41.287 62.3056C40.8387 61.4501 40.764 60.4687 41.0628 59.5376C41.0628 59.4873 42.8309 54.6307 46.9396 48.994C51.3721 42.9043 56.7509 38.5007 62.5032 36.3114L61.0091 34.1222C60.4613 33.3169 60.4613 32.2349 61.0589 31.4548C61.6316 30.6747 62.6526 30.3476 63.574 30.6495L73.7588 34.0718L81.5281 36.7895C82.2752 37.0412 82.823 37.6703 82.9973 38.4252C83.0969 38.8278 83.072 39.2304 82.9475 39.633C82.8479 39.9853 82.6487 40.3125 82.3997 40.5641L76.5478 46.4776L69.5504 53.2467C68.9029 53.8758 67.9567 54.0519 67.11 53.6996C66.2883 53.3473 65.7404 52.5421 65.7155 51.6362L65.6657 48.1636C53.0655 52.2904 46.093 63.0857 46.0183 63.1864C45.5949 63.8406 44.8728 64.2181 44.1257 64.2181H44.1506ZM64.7195 34.2228L65.0432 34.7009C65.5412 35.4307 65.6906 36.3617 65.4167 37.2173C65.1428 38.0729 64.5202 38.7523 63.6736 39.0543C58.4193 41.0422 53.4639 45.0684 49.3302 50.7554C45.5949 55.8889 43.9016 60.3932 43.8767 60.4435C43.8269 60.6197 43.8767 60.7958 43.9265 60.8713C45.6946 58.3549 52.916 49.0946 64.8938 45.2194C65.7653 44.9426 66.7116 45.0936 67.4586 45.622C68.2057 46.1756 68.6539 47.006 68.6539 47.9371V49.8244L74.4311 44.2632L79.4364 39.2052L72.7876 36.865L64.6946 34.1473L64.7195 34.2228Z" fill="black"/>
</g>
<defs>
<clipPath id="clip0_80_35">
<rect width="95" height="96" fill="white"/>
</clipPath>
</defs>
</svg>
